<svg xmlns="http://www.w3.org/2000/svg" xmlns:xlink="http://www.w3.org/1999/xlink" viewBox="0 0 300 345"><defs><linearGradient id="A" x1="150" y1="356.11" x2="150" y2="161.16" gradientUnits="userSpaceOnUse"><stop offset="0" stop-color="#9f77b5"/><stop offset=".69" stop-color="#613e98"/></linearGradient><linearGradient id="B" x1="150" y1="356.11" x2="150" y2="161.16" gradientUnits="userSpaceOnUse"><stop offset="0" stop-color="#53824b"/><stop offset=".69" stop-color="#425634"/></linearGradient><path id="C" d="M263.62,345H36.38A36.38,36.38,0,0,1,0,308.62V259.14H300v49.48A36.38,36.38,0,0,1,263.62,345Z"/><path id="D" d="M170.3 253.78s-18.18 16.78-11.24 25.32a9.19 9.19 0 0 0 2.7 2.19c13.3 7.38 34.26-19.8 34.26-19.8z"/><path id="E" d="M129.7 253.78s18.18 16.78 11.24 25.32a9.19 9.19 0 0 1-2.7 2.19c-13.3 7.38-34.23-19.8-34.23-19.8z"/></defs><use xlink:href="#C" fill="url(#A)"/><use xlink:href="#C" fill="url(#B)"/><rect y="45" width="300" height="253.39" rx="36.38" fill="#b9e4f4"/><path d="M297.28 230c1.7-6.18 2.55-16.12-2.94-28.6l-8.45 13.65a37.36 37.36 0 0 0-4-2.7c.47-7.3-.88-16-7.78-22.43l-9.05 17.54H39.2L28 185.75c-7.85 7.35-8.52 17.53-7.5 25.34a33.44 33.44 0 0 0-3.11 1.7l-9.63-15.56c-5.47 12.42-4.64 22.34-3 28.52A36.3 36.3 0 0 0 0 243.83V262a36.38 36.38 0 0 0 36.38 36.38h227.24A36.38 36.38 0 0 0 300 262v-18.17a36.3 36.3 0 0 0-2.72-13.83z" fill="#6c9355"/><g fill="#53824b"><path d="M17.73 282s-7.48-23.88 3.4-37.07l19 27.34"/><path d="M30.5 275.8s1.72-25 16.63-33.3l7.8 32.38M225 288s.35-25 14.8-34.17l9.54 31.9"/><path d="M239.1 286s9.42-23.2 26.2-26.46l-2.7 33.2"/></g><g fill="none" stroke="#49342b" stroke-width="12" stroke-miterlimit="10"><use xlink:href="#D"/><use xlink:href="#E"/></g><path d="M149.1 267.9c-30.8 0-59.9 0-80.95-8.1-23.85-9.18-35-27.5-35-57.6a116.81 116.81 0 1 1 233.62 0c0 65.7-53.7 65.7-115.9 65.7z" fill="#3f312b"/><path d="M150 88.37a113.81 113.81 0 0 1 113.81 113.82c0 62.55-50.47 62.7-112.92 62.7h-1.78c-62.45 0-112.92-.14-112.92-62.7A113.81 113.81 0 0 1 150 88.37m0-6A119.82 119.82 0 0 0 30.19 202.19c0 31.1 12.06 50.86 36.88 60.4 21.56 8.3 50.94 8.3 82 8.3h1.78c31.1 0 60.47 0 82-8.3 24.83-9.55 36.9-29.3 36.9-60.4A119.82 119.82 0 0 0 150 82.37z" fill="#1e1613"/><g fill="#ce9176"><use xlink:href="#D"/><use xlink:href="#E"/></g><path d="M102.1 150.57c-6.32-5-14.76-9.55-23-7.6-12.24 2.88-6.1 20.18-2.3 28.63a62.48 62.48 0 0 1 25.29-21.03zm121.13 21.03c3.82-8.45 10-25.75-2.3-28.63-8.27-1.95-16.7 2.63-23 7.6a62.48 62.48 0 0 1 25.29 21.03z" fill="#b7785f"/><path d="M196.24 149.8C192.1 161.24 178.8 191 152.1 191c-27.1 0-43.2-30.32-48.1-41.3-31.5 13.77-40.44 42.8-40.44 71.44 0 39.43 38.72 42.75 86.5 42.75s86.5-3.32 86.5-42.75c-.05-28.57-8.95-57.55-40.3-71.36z" fill="#e7bf9a"/><path d="M169.62 238.43c0 11.7-5.4 18.43-19.62 18.43s-19.62-6.72-19.62-18.43 8.78-15.94 19.62-15.94 19.62 4.23 19.62 15.94z" fill="#ce9176"/><path d="M150 251.14c-12.78 0-11.05-12.44 0-12.44s12.78 12.44 0 12.44z" fill="#414042"/><circle cx="202.98" cy="220.53" r="22.49" fill="#b7785f"/><circle cx="202.98" cy="226.78" r="22.49" fill="#fff"/><path d="M211 223.43a8.16 8.16 0 0 1-11.77-11 13.84 13.84 0 0 0-2-.15 14.15 14.15 0 1 0 14.15 14.15 13.82 13.82 0 0 0-.38-3zm-19.85 12.27a3.37 3.37 0 1 1 3.37-3.36 3.35 3.35 0 0 1-3.37 3.36z" fill="#414042"/><circle cx="97.02" cy="220.53" r="22.49" fill="#b7785f"/><circle cx="97.02" cy="226.78" r="22.49" fill="#fff"/><path d="M116.62 223.5a8.15 8.15 0 0 1-11.84-11 14.57 14.57 0 0 0-2-.14 14.15 14.15 0 1 0 14.14 14.15 14.43 14.43 0 0 0-.3-3.01zm-19.77 12.2a3.37 3.37 0 1 1 3.36-3.36 3.36 3.36 0 0 1-3.36 3.36z" fill="#414042"/><g fill="#b7785f"><ellipse cx="185.41" cy="190.96" rx="14.56" ry="10.39" transform="matrix(.95424 -.299041 .299041 .95424 -48.62 64.18)"/><ellipse cx="114.59" cy="190.94" rx="10.39" ry="14.56" transform="matrix(.299041 -.95424 .95424 .299041 -101.88 243.19)"/></g><path d="M45.2 167.2l-9.7-20.7h23.3m2.8-10.95l-3.57-22.58 22.38 6.5m8.6-8.37l2.5-22.73 19.88 12.15m14.87-7.87l10.2-20.46 14.46 18.27m24.25 5.52l19.73-11.54 2.1 23.2m11.2 1.8l22.16-5.58-4.45 22.87m9.1 7.83l22.86.43-10.3 20.9m9.18 14.1l21.3 8.3-16.9 16.05" stroke-miterlimit="10" fill="#3f312b" stroke="#1e1613" stroke-linecap="round" stroke-width="4.48"/></svg>